<svg width="145" height="33" viewBox="0 0 145 33" fill="none" xmlns="http://www.w3.org/2000/svg">
<path d="M3.71094 0.662109H10.1357C11.807 0.662109 13.2402 0.817057 14.4355 1.12695C15.6309 1.43685 16.7155 2.0179 17.6895 2.87012C20.224 5.03939 21.4912 8.33757 21.4912 12.7646C21.4912 14.2256 21.3639 15.5592 21.1094 16.7656C20.8548 17.972 20.4619 19.0622 19.9307 20.0361C19.3994 20.999 18.7188 21.8623 17.8887 22.626C17.2357 23.2126 16.5218 23.6829 15.7471 24.0371C14.9723 24.3913 14.1367 24.6403 13.2402 24.7842C12.3548 24.9281 11.3532 25 10.2354 25H3.81055C2.91406 25 2.23893 24.8672 1.78516 24.6016C1.33138 24.3249 1.03255 23.943 0.888672 23.4561C0.755859 22.958 0.689453 22.3161 0.689453 21.5303V3.68359C0.689453 2.62109 0.927409 1.85189 1.40332 1.37598C1.87923 0.900065 2.64844 0.662109 3.71094 0.662109ZM5.62012 4.56348V21.082H9.35547C10.1745 21.082 10.8164 21.0599 11.2812 21.0156C11.7461 20.9714 12.2275 20.8607 12.7256 20.6836C13.2236 20.5065 13.6553 20.2575 14.0205 19.9365C15.6696 18.542 16.4941 16.1403 16.4941 12.7314C16.4941 10.3298 16.1289 8.53125 15.3984 7.33594C14.679 6.14062 13.7881 5.38249 12.7256 5.06152C11.6631 4.72949 10.3792 4.56348 8.87402 4.56348H5.62012ZM37.3039 22.8584C36.2082 23.7106 35.1457 24.3525 34.1164 24.7842C33.0981 25.2048 31.9526 25.415 30.6798 25.415C29.5177 25.415 28.494 25.1882 27.6086 24.7344C26.7342 24.2695 26.0591 23.6442 25.5832 22.8584C25.1073 22.0726 24.8693 21.2204 24.8693 20.3018C24.8693 19.0622 25.2622 18.0052 26.048 17.1309C26.8338 16.2565 27.9129 15.6699 29.2853 15.3711C29.5731 15.3047 30.2869 15.1553 31.4269 14.9229C32.5669 14.6904 33.5408 14.4801 34.3488 14.292C35.1678 14.0928 36.0532 13.8548 37.005 13.5781C36.9497 12.3828 36.7062 11.5085 36.2746 10.9551C35.854 10.3906 34.9741 10.1084 33.6349 10.1084C32.4839 10.1084 31.6151 10.2689 31.0285 10.5898C30.453 10.9108 29.9549 11.3923 29.5343 12.0342C29.1248 12.6761 28.8315 13.1022 28.6545 13.3125C28.4884 13.5117 28.1232 13.6113 27.5588 13.6113C27.0496 13.6113 26.6069 13.4508 26.2306 13.1299C25.8654 12.7979 25.6828 12.3773 25.6828 11.8682C25.6828 11.0713 25.965 10.2965 26.5295 9.54395C27.0939 8.79134 27.9738 8.17155 29.1691 7.68457C30.3644 7.19759 31.853 6.9541 33.6349 6.9541C35.6271 6.9541 37.1932 7.19206 38.3332 7.66797C39.4731 8.13281 40.2755 8.87435 40.7404 9.89258C41.2163 10.9108 41.4543 12.2611 41.4543 13.9434C41.4543 15.0059 41.4487 15.9079 41.4377 16.6494C41.4377 17.391 41.4321 18.2155 41.4211 19.123C41.4211 19.9753 41.5594 20.8662 41.8361 21.7959C42.1239 22.7145 42.2677 23.3066 42.2677 23.5723C42.2677 24.0371 42.0464 24.4632 41.6037 24.8506C41.172 25.2269 40.6795 25.415 40.1261 25.415C39.6613 25.415 39.202 25.1992 38.7482 24.7676C38.2944 24.3249 37.813 23.6885 37.3039 22.8584ZM37.005 16.3008C36.341 16.5443 35.3726 16.8044 34.0998 17.0811C32.838 17.3467 31.9637 17.5459 31.4767 17.6787C30.9897 17.8005 30.5249 18.0495 30.0822 18.4258C29.6395 18.791 29.4181 19.3057 29.4181 19.9697C29.4181 20.6559 29.6782 21.2425 30.1984 21.7295C30.7186 22.2054 31.3992 22.4434 32.2404 22.4434C33.1369 22.4434 33.9614 22.2497 34.714 21.8623C35.4777 21.4639 36.0366 20.9548 36.3908 20.335C36.8003 19.6488 37.005 18.5199 37.005 16.9482V16.3008ZM50.9417 9.56055V22.6592C50.9417 23.5667 50.7259 24.2529 50.2943 24.7178C49.8626 25.1826 49.3148 25.415 48.6507 25.415C47.9866 25.415 47.4443 25.1771 47.0238 24.7012C46.6142 24.2253 46.4095 23.5446 46.4095 22.6592V9.69336C46.4095 8.79688 46.6142 8.12174 47.0238 7.66797C47.4443 7.21419 47.9866 6.9873 48.6507 6.9873C49.3148 6.9873 49.8626 7.21419 50.2943 7.66797C50.7259 8.12174 50.9417 8.7526 50.9417 9.56055ZM48.7005 4.87891C48.0696 4.87891 47.5273 4.68522 47.0736 4.29785C46.6308 3.91048 46.4095 3.36263 46.4095 2.6543C46.4095 2.01237 46.6364 1.48665 47.0902 1.07715C47.555 0.656576 48.0918 0.446289 48.7005 0.446289C49.2871 0.446289 49.8073 0.63444 50.2611 1.01074C50.7148 1.38704 50.9417 1.9349 50.9417 2.6543C50.9417 3.35156 50.7204 3.89941 50.2777 4.29785C49.8349 4.68522 49.3092 4.87891 48.7005 4.87891ZM60.5454 9.69336V25.0664C60.5454 26.1621 60.5067 27.0531 60.4292 27.7393C60.3628 28.4365 60.2632 28.9401 60.1304 29.25C59.3777 31.1758 57.7785 32.1387 55.3325 32.1387C53.9601 32.1387 52.9197 31.9505 52.2114 31.5742C51.5031 31.1979 51.1489 30.6501 51.1489 29.9307C51.1489 29.3994 51.3094 28.9622 51.6304 28.6191C51.9513 28.2871 52.3719 28.1211 52.8921 28.1211C52.9585 28.1211 53.0692 28.1266 53.2241 28.1377C53.368 28.1598 53.5838 28.182 53.8716 28.2041C54.1704 28.2262 54.3751 28.2373 54.4858 28.2373C55.0945 28.2373 55.4985 27.9993 55.6977 27.5234C55.908 27.0475 56.0132 26.1953 56.0132 24.9668V9.69336C56.0132 8.79688 56.2235 8.12174 56.644 7.66797C57.0646 7.21419 57.618 6.9873 58.3042 6.9873C58.9682 6.9873 59.505 7.21419 59.9145 7.66797C60.3351 8.11068 60.5454 8.78581 60.5454 9.69336ZM58.3042 4.87891C57.6733 4.87891 57.131 4.68522 56.6772 4.29785C56.2345 3.91048 56.0132 3.36263 56.0132 2.6543C56.0132 2.01237 56.2401 1.48665 56.6938 1.07715C57.1587 0.656576 57.6955 0.446289 58.3042 0.446289C58.8908 0.446289 59.411 0.63444 59.8647 1.01074C60.3185 1.38704 60.5454 1.9349 60.5454 2.6543C60.5454 3.35156 60.324 3.89941 59.8813 4.29785C59.4386 4.68522 58.9129 4.87891 58.3042 4.87891ZM82.5172 16.2012C82.5172 17.5514 82.3069 18.7965 81.8864 19.9365C81.4658 21.0765 80.8571 22.056 80.0602 22.875C79.2633 23.694 78.3115 24.3249 77.2047 24.7676C76.098 25.1992 74.8528 25.415 73.4694 25.415C72.097 25.415 70.8629 25.1937 69.7672 24.751C68.6715 24.3083 67.7197 23.6774 66.9118 22.8584C66.1149 22.0283 65.5062 21.0544 65.0856 19.9365C64.6761 18.8076 64.4713 17.5625 64.4713 16.2012C64.4713 14.8288 64.6816 13.5726 65.1022 12.4326C65.5228 11.2926 66.126 10.3187 66.9118 9.51074C67.6976 8.7028 68.6494 8.08301 69.7672 7.65137C70.8851 7.20866 72.1191 6.9873 73.4694 6.9873C74.8418 6.9873 76.0869 7.20866 77.2047 7.65137C78.3226 8.09408 79.2799 8.72493 80.0768 9.54395C80.8737 10.363 81.4769 11.3369 81.8864 12.4658C82.3069 13.5947 82.5172 14.8398 82.5172 16.2012ZM77.9684 16.2012C77.9684 14.3529 77.5589 12.9141 76.7399 11.8848C75.9319 10.8555 74.8418 10.3408 73.4694 10.3408C72.584 10.3408 71.8037 10.5732 71.1286 11.0381C70.4534 11.4919 69.9332 12.167 69.568 13.0635C69.2028 13.96 69.0202 15.0059 69.0202 16.2012C69.0202 17.3854 69.1972 18.4202 69.5514 19.3057C69.9166 20.1911 70.4313 20.8717 71.0954 21.3477C71.7705 21.8125 72.5618 22.0449 73.4694 22.0449C74.8418 22.0449 75.9319 21.5303 76.7399 20.501C77.5589 19.4606 77.9684 18.0273 77.9684 16.2012ZM98.2137 22.8584V22.2773C97.6714 22.9635 97.1014 23.5391 96.5037 24.0039C95.9061 24.4688 95.2531 24.8118 94.5447 25.0332C93.8364 25.2656 93.0284 25.3818 92.1209 25.3818C91.0252 25.3818 90.0402 25.1549 89.1658 24.7012C88.3025 24.2474 87.6329 23.6221 87.157 22.8252C86.5926 21.8623 86.3103 20.4788 86.3103 18.6748V9.69336C86.3103 8.78581 86.5151 8.11068 86.9246 7.66797C87.3341 7.21419 87.8764 6.9873 88.5516 6.9873C89.2378 6.9873 89.7911 7.21419 90.2117 7.66797C90.6323 8.12174 90.8426 8.79688 90.8426 9.69336V16.9482C90.8426 17.9997 90.9311 18.8851 91.1082 19.6045C91.2853 20.3128 91.6007 20.8717 92.0545 21.2812C92.5193 21.6797 93.1447 21.8789 93.9305 21.8789C94.6941 21.8789 95.4135 21.652 96.0887 21.1982C96.7638 20.7445 97.2563 20.1523 97.5662 19.4219C97.8208 18.7799 97.948 17.3743 97.948 15.2051V9.69336C97.948 8.79688 98.1583 8.12174 98.5789 7.66797C98.9995 7.21419 99.5473 6.9873 100.222 6.9873C100.898 6.9873 101.44 7.21419 101.849 7.66797C102.259 8.11068 102.464 8.78581 102.464 9.69336V22.8252C102.464 23.6885 102.264 24.3359 101.866 24.7676C101.479 25.1992 100.975 25.415 100.355 25.415C99.7355 25.415 99.2208 25.1937 98.8113 24.751C98.4129 24.2972 98.2137 23.6663 98.2137 22.8584ZM111.519 2.83691V9.75977C112.372 8.87435 113.241 8.19922 114.126 7.73438C115.011 7.25846 116.107 7.02051 117.413 7.02051C118.918 7.02051 120.235 7.38021 121.364 8.09961C122.504 8.80794 123.384 9.84277 124.004 11.2041C124.635 12.5544 124.95 14.1592 124.95 16.0186C124.95 17.391 124.773 18.6527 124.419 19.8037C124.076 20.9437 123.572 21.9342 122.908 22.7754C122.244 23.6165 121.436 24.2695 120.484 24.7344C119.544 25.1882 118.503 25.415 117.363 25.415C116.666 25.415 116.007 25.332 115.388 25.166C114.779 25 114.259 24.7842 113.827 24.5186C113.395 24.2419 113.025 23.9596 112.715 23.6719C112.416 23.3841 112.018 22.9525 111.519 22.377V22.8252C111.519 23.6774 111.315 24.3249 110.905 24.7676C110.496 25.1992 109.976 25.415 109.345 25.415C108.703 25.415 108.188 25.1992 107.801 24.7676C107.424 24.3249 107.236 23.6774 107.236 22.8252V3.03613C107.236 2.11751 107.419 1.42578 107.784 0.960938C108.16 0.485026 108.681 0.24707 109.345 0.24707C110.042 0.24707 110.579 0.473958 110.955 0.927734C111.331 1.37044 111.519 2.00684 111.519 2.83691ZM111.735 16.3008C111.735 18.1048 112.145 19.4938 112.964 20.4678C113.794 21.4307 114.879 21.9121 116.218 21.9121C117.358 21.9121 118.337 21.4196 119.156 20.4346C119.986 19.4385 120.401 18.0163 120.401 16.168C120.401 14.9727 120.23 13.9434 119.887 13.0801C119.544 12.2168 119.057 11.5527 118.426 11.0879C117.795 10.612 117.059 10.374 116.218 10.374C115.354 10.374 114.585 10.612 113.91 11.0879C113.235 11.5527 112.704 12.2334 112.316 13.1299C111.929 14.0153 111.735 15.0723 111.735 16.3008ZM140.232 22.8584V22.2773C139.689 22.9635 139.119 23.5391 138.522 24.0039C137.924 24.4688 137.271 24.8118 136.563 25.0332C135.854 25.2656 135.046 25.3818 134.139 25.3818C133.043 25.3818 132.058 25.1549 131.184 24.7012C130.32 24.2474 129.651 23.6221 129.175 22.8252C128.61 21.8623 128.328 20.4788 128.328 18.6748V9.69336C128.328 8.78581 128.533 8.11068 128.943 7.66797C129.352 7.21419 129.894 6.9873 130.569 6.9873C131.256 6.9873 131.809 7.21419 132.23 7.66797C132.65 8.12174 132.86 8.79688 132.86 9.69336V16.9482C132.86 17.9997 132.949 18.8851 133.126 19.6045C133.303 20.3128 133.619 20.8717 134.072 21.2812C134.537 21.6797 135.163 21.8789 135.948 21.8789C136.712 21.8789 137.431 21.652 138.107 21.1982C138.782 20.7445 139.274 20.1523 139.584 19.4219C139.839 18.7799 139.966 17.3743 139.966 15.2051V9.69336C139.966 8.79688 140.176 8.12174 140.597 7.66797C141.017 7.21419 141.565 6.9873 142.24 6.9873C142.915 6.9873 143.458 7.21419 143.867 7.66797C144.277 8.11068 144.482 8.78581 144.482 9.69336V22.8252C144.482 23.6885 144.282 24.3359 143.884 24.7676C143.497 25.1992 142.993 25.415 142.373 25.415C141.753 25.415 141.239 25.1937 140.829 24.751C140.431 24.2972 140.232 23.6663 140.232 22.8584Z" fill="#E34F76"/>
</svg>
